<?xml version="1.0" standalone="no"?><!DOCTYPE svg PUBLIC "-//W3C//DTD SVG 1.1//EN" "http://www.w3.org/Graphics/SVG/1.1/DTD/svg11.dtd"><svg class="icon" width="200px" height="200.00px" viewBox="0 0 1024 1024" version="1.1" xmlns="http://www.w3.org/2000/svg"><path fill="#000000" d="M886.29522 309.765019 746.156506 172.182524c-10.154267-9.996678-26.6428-9.996678-36.821627 0-10.17678 9.974166-10.17678 26.167986 0 36.153408l80.202647 78.753645c-182.839235-3.414773-351.067704 122.653481-409.782967 295.155277l48.175209 22.707165c51.79362-153.693428 224.251414-282.489816 389.177674-264.180821L709.788204 446.124663c-10.064216 9.906627-10.064216 25.965371 0 35.870975 10.086729 9.907651 26.440186 9.907651 36.525891 0l135.864364-133.431965c1.378393-0.904603 2.895957-1.459235 4.092201-2.657526C896.449487 335.954495 896.449487 319.761698 886.29522 309.765019zM824.276724 778.430048c0 22.379707-20.739347 40.528042-46.319955 40.528042L222.110145 818.95809c-25.580608 0-46.320978-18.148335-46.320978-40.528042L175.789167 292.064892c0-22.378683 20.74037-40.529065 46.320978-40.529065l231.603869 0 0-40.530089L175.789167 211.005738c-25.579585 0-46.320978 18.150382-46.320978 40.530089l0 567.423287c0 22.38073 20.741393 40.532135 46.320978 40.532135L824.276724 859.491249c25.581632 0 46.322002-18.151405 46.322002-40.532135L870.598726 575.777559 824.276724 575.777559 824.276724 778.430048z" /></svg>