<?xml version="1.0" standalone="no"?><!DOCTYPE svg PUBLIC "-//W3C//DTD SVG 1.1//EN" "http://www.w3.org/Graphics/SVG/1.1/DTD/svg11.dtd"><svg class="icon" width="200px" height="200.00px" viewBox="0 0 1024 1024" version="1.1" xmlns="http://www.w3.org/2000/svg"><path fill="#333333" d="M512 66.56c-80.384 0-159.232 21.504-227.328 62.464-38.4-42.496-94.208-66.048-157.696-66.048-11.776 0-22.528 6.144-28.16 16.384-5.632 10.24-5.12 22.528 1.024 32.768 0.512 0.512 33.28 54.272 41.984 137.216 1.536 16.384 15.36 28.672 31.744 28.672h3.072c17.408-1.536 30.208-17.408 28.672-34.816-4.096-43.008-14.336-79.36-24.576-107.008 24.576 8.192 51.2 24.064 69.632 53.248l0.512 0.512v0.512c1.024 1.536 2.56 2.56 4.096 4.096s3.072 3.584 4.608 4.608c2.048 1.024 4.096 1.536 5.632 2.56 2.048 0.512 3.584 1.536 5.632 2.048 2.048 0.512 4.096 0 6.144 0 2.048 0 4.096 0.512 6.144 0 2.048-0.512 3.584-1.536 5.632-2.048 2.048-1.024 4.096-1.024 5.632-2.048l0.512-0.512h0.512c63.488-44.544 138.752-68.096 216.576-68.096 210.432 0 381.952 172.544 381.952 384.512 0 211.968-171.008 384.512-381.952 384.512s-381.952-172.032-381.952-384.512c0-54.272 11.264-106.496 32.768-156.16 7.168-16.384 0-34.816-16.384-42.496-16.384-7.168-34.816 0-42.496 16.384-25.6 57.344-38.4 118.784-38.4 182.272 0 247.296 199.68 449.024 445.44 449.024s445.44-201.216 445.44-449.024C956.416 267.776 757.76 66.56 512 66.56z"  /><path fill="#333333" d="M722.432 467.968m-61.44 0a61.44 61.44 0 1 0 122.88 0 61.44 61.44 0 1 0-122.88 0Z"  /><path fill="#333333" d="M510.976 467.968m-61.44 0a61.44 61.44 0 1 0 122.88 0 61.44 61.44 0 1 0-122.88 0Z"  /></svg>