<?xml version="1.0" standalone="no"?><!DOCTYPE svg PUBLIC "-//W3C//DTD SVG 1.1//EN" "http://www.w3.org/Graphics/SVG/1.1/DTD/svg11.dtd"><svg class="icon" width="200px" height="200.00px" viewBox="0 0 1024 1024" version="1.1" xmlns="http://www.w3.org/2000/svg"><path fill="#bfbfbf" d="M469.333333 855.1296c-211.626667 0-384-172.373333-384-384s172.373333-384 384-384 384 172.373333 384 384-172.373333 384-384 384z m0-704c-176.64 0-320 143.36-320 320s143.36 320 320 320 320-143.36 320-320-143.36-320-320-320zM707.84 701.5296c16.64-16.64 37.546667-10.666667 54.186667 5.973333l166.4 166.4c16.64 16.64 22.613333 37.546667 5.973333 54.186667s-34.56 7.68-51.2-8.96l-166.4-166.4c-16.64-16.64-25.6-34.56-8.96-51.2z" /></svg>