<?xml version="1.0" standalone="no"?><!DOCTYPE svg PUBLIC "-//W3C//DTD SVG 1.1//EN" "http://www.w3.org/Graphics/SVG/1.1/DTD/svg11.dtd"><svg t="1630838944933" class="icon" viewBox="0 0 1024 1024" version="1.1" xmlns="http://www.w3.org/2000/svg" p-id="3291" xmlns:xlink="http://www.w3.org/1999/xlink" width="200" height="200"><defs><style type="text/css"></style></defs><path d="M456.32 176a312.32 312.32 0 1 1-312.32 312.32 312.32 312.32 0 0 1 312.32-312.32m0-64A376.32 376.32 0 1 0 832 488.32a376.32 376.32 0 0 0-375.68-376.32z" p-id="3292"></path><path d="M709.76 709.76a32 32 0 0 0-22.4 54.4l181.12 181.12a32 32 0 0 0 45.44-45.44l-181.12-181.12a32 32 0 0 0-22.4-9.6z" p-id="3293"></path></svg>