<svg height="439pt" viewBox="0 -2 439.00053 439" width="439pt" xmlns="http://www.w3.org/2000/svg"><path d="m8 199.460938h39.5v224.472656c.109375 4.378906 3.734375 7.847656 8.113281 7.761718l323.6875 2.765626h.074219c2.097656.085937 4.144531-.660157 5.695312-2.082032 1.523438-1.402344 2.402344-3.375 2.429688-5.445312v-227.472656h43.5c3.34375-.015626 6.328125-2.101563 7.496094-5.238282 1.164062-3.132812.269531-6.664062-2.25-8.859375l-211.226563-183.402343c-3.003906-2.609376-7.472656-2.613282-10.480469-.011719l-211.773437 183.390625c-2.527344 2.199218-3.425781 5.730468-2.261719 8.871094 1.164063 3.140624 4.148438 5.230468 7.496094 5.25zm257.5 218.417968-90-.839844v-101.578124h90zm106 .980469-90-.832031v-110.683594c.042969-2.085938-.761719-4.101562-2.226562-5.589844-1.46875-1.484375-3.476563-2.3125-5.5625-2.292968h-106.695313c-4.417969 0-7.515625 3.464843-7.515625 7.882812v109.542969l-96-.878907v-216.546874h308zm-151.730469-400.203125 189.816407 164.804688h-380.128907zm0 0"/></svg>